<svg width="204" height="48" viewBox="0 0 204 48" fill="none" xmlns="http://www.w3.org/2000/svg">
<g clip-path="url(#clip0_624_1723)">
<path d="M130.692 39.627C130.556 39.627 130.419 39.627 130.282 39.627C130.457 39.1246 130.594 38.4045 130.692 37.4556V30.5227L126.602 20.6759C125.929 19.3083 125.355 18.3036 124.868 17.6505C125.027 17.6505 125.185 17.6505 125.344 17.6505H132.005H132.267C132.426 17.6505 132.579 17.6505 132.738 17.6505C132.765 18.4766 133.11 19.9056 133.782 21.9375L134.81 24.8569V24.8681L135.374 26.4701L135.499 26.5036C136.806 23.6288 138.524 19.4311 138.228 17.6505C138.392 17.6505 138.562 17.6505 138.726 17.6505H138.945H142.806C142.942 17.6505 143.074 17.6505 143.21 17.6505C142.8 18.1975 142.33 19.0125 141.789 20.0954L137.463 30.5171V37.5337C137.556 38.438 137.682 39.1358 137.846 39.6214C137.72 39.6214 137.589 39.6214 137.463 39.6214H137.009H136.992H136.91H136.894C136.746 39.6214 136.599 39.6214 136.451 39.6214H130.692V39.627ZM108.965 39.627H113.039C113.285 39.627 113.537 39.627 113.783 39.627C113.624 38.7227 113.783 37.0202 114.242 34.5082L114.68 32.6327H118.617L119.011 34.3185C119.503 36.9364 119.667 38.7059 119.509 39.627C119.76 39.627 120.012 39.627 120.264 39.627H126.859C127.017 39.627 127.181 39.627 127.346 39.627C126.886 38.8008 126.399 37.4779 125.885 35.6581L124.77 31.1423L124.693 30.785V30.8074L121.45 17.6561H114.363C114.078 17.6561 113.799 17.6561 113.515 17.6561C113.734 18.8506 113.422 21.29 112.574 24.9741L112.585 24.963L111.142 30.8074V30.785L111.06 31.1255L109.928 35.7196C109.419 37.5058 108.938 38.812 108.478 39.627C108.637 39.627 108.801 39.627 108.96 39.627H108.965ZM88.1892 17.6449C88.0416 17.6449 87.8939 17.6449 87.7517 17.6449C87.9541 18.2422 88.0962 19.152 88.1892 20.3801V36.8862C88.0962 38.1143 87.9486 39.0241 87.7517 39.6214C87.8994 39.6214 88.047 39.6214 88.1892 39.6214H88.4627H94.2595C94.4181 39.6214 94.5767 39.6214 94.7353 39.6214C94.5111 38.946 94.3525 37.8686 94.2595 36.3838V29.4844H94.3799C97.2455 35.7307 97.0978 39.6214 104.874 39.6214H107.089V39.6102C107.275 39.6102 107.467 39.6102 107.658 39.6102C105.131 36.7578 102.063 30.746 99.7392 27.1455C100.91 24.561 104.393 19.9559 106.542 17.6505C106.198 17.6505 105.853 17.6505 105.509 17.6505H100.417C100.188 17.6505 99.958 17.6505 99.7228 17.6505C99.4494 20.7262 96.3541 25.1137 94.3689 27.6144H94.2486V20.8825C94.3361 19.3977 94.4947 18.3203 94.7244 17.6449C94.5658 17.6449 94.4072 17.6449 94.2486 17.6449H94.008H88.1783H88.1892ZM51.6251 18.605C51.6251 18.1919 51.6251 17.7844 51.6251 17.377C51.8821 17.483 52.2102 17.5723 52.6095 17.6449H67.9111C68.3103 17.5667 68.6384 17.4774 68.8954 17.377C68.8954 17.7844 68.8954 18.1975 68.8954 18.605V20.8546C68.8954 21.2676 68.8954 21.6751 68.8954 22.0826C68.6822 21.9989 68.4306 21.9207 68.1243 21.8538H63.2954V36.8304C63.3884 38.0808 63.5361 39.0018 63.7384 39.6047C63.5962 39.6102 63.4485 39.6158 63.2954 39.6214H63.2462C63.0165 39.6214 62.7814 39.6214 62.5353 39.6102C57.0064 39.3144 57.3618 35.8144 57.2306 31.6502V21.8538H52.4017C52.1009 21.9207 51.8384 21.9933 51.6306 22.0826C51.6306 21.6751 51.6306 21.2621 51.6306 20.8546V18.605H51.6251ZM73.7572 32.6271H77.7001L78.0939 34.3129C78.5861 36.9309 78.7501 38.7004 78.5916 39.6214C78.8431 39.6214 79.0947 39.6214 79.3462 39.6214H85.9416C86.1002 39.6214 86.2642 39.6214 86.4283 39.6214C85.9689 38.7953 85.4822 37.4723 84.9627 35.6526L83.847 31.1367L83.7705 30.7794V30.8018L80.5275 17.6505H73.44C73.1556 17.6505 72.8767 17.6505 72.5923 17.6505C72.8111 18.845 72.4993 21.2844 71.6517 24.9685L71.6626 24.9574L70.2189 30.8018V30.7794L70.1423 31.1199L69.0103 35.714C68.5017 37.5002 68.0204 38.8064 67.5611 39.6214C67.7197 39.6214 67.8837 39.6214 68.0423 39.6214H68.4142H72.1165C72.3626 39.6214 72.6142 39.6214 72.8603 39.6214C72.7017 38.7171 72.8603 37.0146 73.3197 34.5027L73.7572 32.6271ZM77.1861 30.4389H74.2658C74.747 28.3568 75.2283 26.2747 75.7095 24.1815C76.2072 26.2692 76.6939 28.3568 77.1806 30.4389M115.188 30.4389C115.67 28.3568 116.151 26.2747 116.632 24.1815C117.13 26.2692 117.617 28.3568 118.103 30.4389H115.183H115.188ZM141.603 39.627H145.677C145.923 39.627 146.174 39.627 146.421 39.627C146.267 38.7227 146.421 37.0202 146.885 34.5082L147.323 32.6327H151.266L151.66 34.3185C152.152 36.9364 152.316 38.7059 152.157 39.627C152.409 39.627 152.66 39.627 152.912 39.627H159.507C159.671 39.627 159.83 39.627 159.994 39.627C159.535 38.8008 159.048 37.4779 158.528 35.6581L157.418 31.1423L157.342 30.785V30.8074L154.099 17.6561H147.011C146.727 17.6561 146.448 17.6561 146.164 17.6561C146.382 18.8506 146.071 21.29 145.223 24.9741L145.234 24.963L143.79 30.8074V30.785L143.714 31.1255L142.582 35.7196C142.073 37.5058 141.592 38.812 141.138 39.627C141.296 39.627 141.46 39.627 141.619 39.627H141.603ZM161.46 17.6449C161.296 17.6449 161.132 17.6449 160.967 17.6449C161.17 18.1975 161.334 19.0181 161.46 20.1122V36.9364C161.334 38.1254 161.17 39.0185 160.967 39.6158C161.132 39.6158 161.296 39.6158 161.46 39.6158H162.16H165.08C165.282 39.6158 165.485 39.6158 165.687 39.6158C165.293 38.438 165.107 36.0321 165.124 32.3982L165.08 32.4931V24.1703H165.266L168.121 34.5976C169.105 38.1924 169.132 39.9731 174.076 39.627L178.369 24.1759H178.555V35.5577C178.478 37.4723 178.303 38.8288 178.041 39.6214C178.21 39.6214 178.385 39.6214 178.555 39.6214H178.752H182.318C182.558 39.6214 182.793 39.6214 183.034 39.6214C182.602 38.6166 182.367 36.7187 182.318 33.9166V23.6456C182.361 20.7039 182.602 18.6999 183.034 17.6449C182.799 17.6449 182.558 17.6449 182.318 17.6449H174.596C174.273 17.6449 173.95 17.6449 173.628 17.6449C173.797 18.7669 173.562 21.0164 172.933 24.388L172.146 27.5865H171.96L169.482 17.6393H161.449L161.46 17.6449ZM184.696 39.627H188.771C189.017 39.627 189.268 39.627 189.514 39.627C189.356 38.7227 189.514 37.0202 189.979 34.5082L190.417 32.6327H194.354L194.748 34.3185C195.24 36.9364 195.404 38.7059 195.246 39.627C195.497 39.627 195.749 39.627 196 39.627H202.596C202.76 39.627 202.918 39.627 203.082 39.627C202.623 38.8008 202.136 37.4779 201.622 35.6581L200.507 31.1423L200.43 30.785V30.8074L197.187 17.6561H190.1C189.815 17.6561 189.536 17.6561 189.252 17.6561C189.471 18.8506 189.159 21.29 188.311 24.9741L188.322 24.963L186.878 30.8074V30.785L186.802 31.1255L185.67 35.7196C185.161 37.5058 184.68 38.812 184.226 39.627C184.385 39.627 184.549 39.627 184.707 39.627H184.696ZM190.925 30.4389C191.407 28.3568 191.888 26.2747 192.369 24.1815C192.867 26.2692 193.353 28.3568 193.84 30.4389H190.92H190.925ZM147.832 30.4389C148.313 28.3568 148.794 26.2747 149.275 24.1815C149.773 26.2692 150.26 28.3568 150.752 30.4389H147.832Z" fill="#2D2A26"/>
<path d="M41.218 16.618C41.0977 16.283 40.8571 15.8309 40.5071 15.6076C42.279 14.9154 43.5915 16.0151 43.9032 16.8524C42.9243 16.3165 42.104 16.3389 41.218 16.6124M33.8079 12.6491C31.1172 11.1029 31.2212 9.59575 31.1118 7.8374C32.0305 9.21617 33.1516 10.2042 34.4805 10.7903C34.5626 11.1643 34.229 12.13 33.8079 12.6491ZM41.2563 12.0965C43.3016 14.8484 40.529 14.7926 38.8008 13.8716C37.7235 13.2966 36.5915 11.0582 35.5415 9.77437C35.7548 9.4841 35.9352 9.10452 36.0829 8.64122C36.4493 7.78158 37.2368 7.44666 37.986 7.75925C37.5376 6.69308 36.5368 6.45864 35.443 6.95544C35.0438 5.88369 35.8532 5.03521 36.8759 5.02405C35.9735 4.13092 34.2782 4.34862 34.0266 5.77204C32.561 4.98498 33.4524 3.05917 35.0165 3.03126C33.2391 1.95393 30.729 3.93555 32.3751 6.10697C29.0555 1.50178 24.2266 2.6461 20.9454 -0.00537109C21.3993 1.75855 23.1547 2.04882 24.6258 3.31595C20.311 1.49062 15.3125 1.63575 12.7367 2.38374C15.1485 2.78007 17.8883 3.83508 19.0203 4.5105C15.236 3.95788 11.1344 4.92916 7.60158 7.92113C11.6321 6.52562 15.4274 6.59819 19.3321 7.61412C12.8024 7.31827 5.24454 9.2999 1.97969 15.4346C2.80001 14.7815 6.64454 12.8389 7.9297 14.1953C8.55314 14.854 7.10392 15.5797 6.37111 16.0765C4.12345 17.5948 0.267969 19.7774 0 27.0564C0.552345 25.2087 3.56016 22.2335 4.92735 22.7694C5.79689 23.1099 5.2336 24.1537 4.91095 25.4711C3.77344 30.1321 4.55548 34.5475 7.92423 36.8808C7.08751 34.2461 7.64533 31.9239 8.95783 31.5332C9.7508 31.3713 9.81096 32.1919 10.5328 33.526C13.5078 39.4318 21.4321 37.8855 25.0141 31.589C20.043 33.766 13.0266 31.2931 10.6313 26.2693C9.70705 24.3323 9.3133 21.625 9.65236 19.4146C10.1063 16.4282 11.5992 14.067 13.5352 12.504H13.4969C16.7672 9.81903 21.011 9.28315 24.7243 10.9522C19.9993 10.0535 15.0446 11.583 12.3539 15.4625C14.618 13.6204 17.9047 13.319 20.6336 14.6307C20.7102 15.189 21.4102 18.7559 25.7305 19.9337C26.5563 20.2407 27.5626 20.3691 28.5743 20.5142C32.0743 20.8659 34.5571 21.9823 36.0173 23.869C36.1485 24.0253 36.2798 24.1705 36.411 24.31C36.2087 24.5445 36.0829 24.8738 36.061 25.298C36.0173 26.113 35.8368 26.3475 35.0438 26.6712C36.236 26.7605 36.9141 26.1074 37.5212 25.499C37.2149 26.5875 36.0337 27.609 34.5735 28.0388C37.3188 28.3347 39.5118 26.995 40.611 25.0301C41.0321 24.4328 41.3384 23.5285 41.5079 22.3451C40.529 22.9424 39.479 23.7574 38.7024 23.0261C37.0782 21.4967 37.2204 20.8715 33.5454 20.0621C29.6352 19.1969 36.6133 17.3715 30.4719 15.8644C29.7774 15.6913 28.2516 15.3229 26.9391 15.3173C29.6899 14.7703 33.4743 15.7081 35.8641 16.9138C36.2196 17.1817 36.4438 17.4776 36.5149 17.8013C36.6899 18.5884 35.7766 18.9289 34.3657 18.7559C35.9352 20.2016 37.2259 18.8731 38.1118 19.0015C38.3524 19.035 38.5219 19.2694 38.4891 19.515C38.4618 19.7104 38.3032 19.85 38.1391 19.9393C37.6852 20.2184 36.9032 20.3021 35.793 20.1849C36.7883 20.838 38.068 21.1394 39.0634 20.6705C39.3204 20.5533 39.7743 20.196 40.0423 20.2351C40.0696 20.2351 40.0915 20.2463 40.1134 20.2519C40.1462 20.2574 40.1735 20.2742 40.2009 20.2909C40.3485 20.3747 40.436 20.5421 40.4196 20.7208C40.4196 20.7822 40.4032 20.838 40.3704 20.8882C40.0259 21.5581 38.7024 21.6809 38.068 21.6976C40.0641 22.5796 41.0102 21.653 41.8688 21.3013C42.1751 21.212 42.4157 21.452 42.4266 21.6976C42.4704 22.1665 42.0821 22.8364 41.7704 23.1601C42.7712 22.9089 43.5423 21.9935 43.9743 20.6314C45.2376 20.0286 45.8337 19.2192 46.2274 18.2256C42.9626 17.8795 46.7688 13.9721 41.2563 12.1021" fill="#E1251B"/>
<path d="M23.9094 38.9796C24.7461 36.9533 25.2547 34.9326 25.2766 33.3138C23.1985 37.171 10.8938 45.2147 1.08829 31.7676C2.19845 35.4461 4.22736 38.7228 7.18595 41.6031C9.04533 43.4508 11.2492 44.9077 13.8141 45.9516C15.1266 46.5433 16.5102 47.0177 17.9539 47.3638C18.293 47.1015 18.6266 46.8168 18.9547 46.5098C20.9344 44.69 22.7391 41.8376 23.9094 38.9963V38.9852V38.9796Z" fill="#E1251B"/>
<path d="M31.079 38.5606C33.3266 37.3158 34.5352 37.6284 35.3282 38.2815C35.3118 37.4553 35.1915 36.3166 35.0602 35.4849C34.5352 32.2528 31.6422 35.2951 29.0336 34.2624C29.5915 34.2791 30.5266 33.9386 31.161 33.4139C32.6376 32.1803 33.7094 32.2975 34.393 32.6603C34.054 31.7114 33.5946 30.595 33.1024 29.7186C32.0633 27.8598 30.5157 30.595 28.4047 30.461C28.8477 30.3326 29.4985 29.8247 29.8758 29.2497C30.4555 28.3677 30.8165 27.7035 31.7571 27.5974C31.2321 26.8885 30.8383 26.4084 30.2204 25.7944C28.7766 24.3543 28.4157 26.7099 26.9719 27.2513C27.218 27.0448 27.486 26.5368 27.568 26.0735C27.7266 25.1581 27.9344 24.4324 28.5797 24.3152C26.5782 22.7187 24.2539 21.58 21.7711 20.9883C22.4547 21.7977 23.0453 22.7076 23.5758 23.7123C25.5829 27.3295 26.4852 31.5495 25.8508 36.0598C25.7743 36.618 25.6704 37.165 25.55 37.7121C24.9868 40.0398 24.0899 42.161 22.8649 44.0812C22.05 45.3372 21.093 46.4871 20.0211 47.5086C20.0485 47.5086 20.0813 47.5086 20.1086 47.5142C20.0321 47.5923 19.9555 47.6649 19.8789 47.743C19.9172 47.7486 19.961 47.7542 19.9993 47.7654C24.8938 48.4799 29.6516 47.6035 33.7751 45.5214C34.1251 44.8404 34.4204 44.0589 34.6501 43.1602C34.754 42.7917 34.836 42.4512 34.918 42.0103C34.9563 41.8037 34.9837 41.6195 35.0001 41.4465C35.2735 38.0861 30.9532 40.5366 28.5524 39.2137C29.1758 39.3197 30.2532 39.0183 31.0735 38.5661" fill="#E1251B"/>
<path d="M15.2578 29.6911C16.3516 30.3777 17.5985 30.8521 18.9547 31.0475C19.9118 31.1871 20.8524 31.1815 21.7602 31.0419C22.7883 30.8856 23.7782 30.5619 24.686 30.093C23.8602 30.3609 22.9688 30.4447 22.0555 30.3163C18.8125 29.8418 16.5649 26.7772 17.0297 23.4727C17.3688 21.0389 19.086 19.1522 21.2571 18.5102C20.6391 17.6953 20.2289 16.7351 20.0266 15.6187C17.1774 14.4968 14.268 15.1666 11.4844 17.1929C11.3094 17.5892 11.1617 17.9967 11.036 18.4153C10.8282 19.1243 11.1235 19.3531 11.8782 19.3643C12.7422 19.3755 13.8688 18.9066 15.1047 19.5876C14.6727 19.515 13.9235 19.6936 13.3766 20.0286C12.2938 20.6984 11.2438 20.8547 10.6531 20.5421C10.6203 21.0277 10.6203 21.5078 10.6531 21.9823C10.7571 23.4224 11.6485 23.1824 13.1086 22.8754C13.6063 22.7693 14.1641 22.7303 14.7766 22.9703C14.3938 22.9591 13.7539 23.1936 13.3164 23.5508C12.5016 24.2095 11.6649 24.4774 11.1125 24.3435C11.2875 24.8794 11.5063 25.4041 11.7633 25.8953C12.611 27.5197 13.6938 25.4766 15.2032 25.5715C14.8969 25.6608 14.4539 26.0069 14.1969 26.4032C13.7813 27.034 13.2836 27.4359 12.8516 27.5532C13.2508 28.0444 13.6992 28.5021 14.1914 28.9096C15.1539 29.7134 15.143 28.1616 16.1875 27.7709C16.018 27.9104 15.8321 28.2621 15.7774 28.5802C15.6899 29.0882 15.4875 29.479 15.2524 29.6799" fill="#E1251B"/>
<path d="M34.836 30.7739C36.7063 35.6191 36.9743 40.1853 35.629 44.4667C38.5712 42.6302 41.1032 40.1462 43.0227 37.1765C41.5735 35.234 38.8446 33.1016 34.836 30.7739Z" fill="#E1251B"/>
<path d="M94.3689 11.6946H95.6596V6.31353L98.0002 9.60693H98.1916L100.51 6.28004V11.6946H101.79V4.20352H100.571L98.1752 7.70346L95.665 4.20352H94.3635V11.689L94.3689 11.6946ZM103.278 7.94349C103.278 10.2768 104.913 11.8118 107.095 11.8118C109.277 11.8118 110.923 10.193 110.923 7.94349C110.923 5.69392 109.277 4.07513 107.095 4.07513C104.913 4.07513 103.278 5.76649 103.278 7.94349ZM104.639 7.94349C104.639 6.39168 105.689 5.30876 107.095 5.30876C108.5 5.30876 109.561 6.39168 109.561 7.94349C109.561 9.49529 108.637 10.5782 107.095 10.5782C105.722 10.5782 104.639 9.44506 104.639 7.94349ZM111.503 5.43715H113.887V11.6946H115.178V5.43715H117.556V4.20352H111.503V5.43715ZM118.136 7.94349C118.136 10.2768 119.771 11.8118 121.953 11.8118C124.135 11.8118 125.781 10.193 125.781 7.94349C125.781 5.69392 124.135 4.07513 121.953 4.07513C119.771 4.07513 118.136 5.76649 118.136 7.94349ZM119.498 7.94349C119.498 6.39168 120.548 5.30876 121.953 5.30876C123.359 5.30876 124.42 6.39168 124.42 7.94349C124.42 9.49529 123.496 10.5782 121.953 10.5782C120.581 10.5782 119.498 9.44506 119.498 7.94349ZM128.565 11.6946V8.98175C128.882 9.01524 129.298 9.01524 129.517 9.01524C131.272 9.01524 132.202 7.85975 132.202 6.58147C132.202 5.30318 131.518 4.17002 129.358 4.17002C128.844 4.17002 127.679 4.19235 127.269 4.19235V11.689H128.56L128.565 11.6946ZM129.489 5.40924C130.37 5.40924 130.846 5.7944 130.846 6.57588C130.846 7.41319 130.249 7.78719 129.484 7.78719C129.189 7.78719 128.877 7.76486 128.571 7.73137V5.43157C128.915 5.4204 129.232 5.40924 129.495 5.40924M138.349 11.6946H139.628V4.20352H138.349V7.25689H134.991V4.20352H133.7V11.689H134.991V8.48494H138.349V11.689V11.6946ZM147.416 11.6946H148.696V4.20352H147.416V11.689V11.6946ZM143.67 7.94349C144.572 7.94349 145.097 8.36214 145.097 9.16595C145.097 10.0423 144.594 10.4833 143.648 10.4833C143.396 10.4833 143.189 10.461 142.953 10.4498V7.99372C143.249 7.96023 143.467 7.9379 143.664 7.9379M142.953 4.19793H141.663V11.6835C142.095 11.6835 142.795 11.7058 143.489 11.7058C145.365 11.7058 146.459 10.7122 146.459 9.12688C146.459 7.6588 145.589 6.70427 143.774 6.70427C143.566 6.70427 143.282 6.71544 142.953 6.76009V4.19793ZM150.73 11.6835H155.083V10.4498H152.021V8.51285H154.662V7.27922H152.021V5.42598H154.979V4.19235H150.73V11.6779V11.6835ZM158.988 11.6835H160.278V6.30236L162.619 9.59577H162.81L165.129 6.26887V11.6835H166.409V4.20352H165.195L162.8 7.70346L160.289 4.20352H158.988V11.689V11.6835ZM167.497 11.6835H168.799L169.564 9.76881H172.703L173.469 11.6835H174.842L171.735 4.16444H170.603L167.497 11.6835ZM171.139 5.86697L172.211 8.53518H170.062L171.145 5.86697H171.139ZM181.043 9.96977C180.54 10.3661 179.922 10.567 179.304 10.567C177.806 10.567 176.767 9.49529 176.767 7.93232C176.767 6.36935 177.795 5.2976 179.162 5.2976C179.895 5.2976 180.376 5.49855 180.819 5.79998L181.399 4.82312C180.918 4.37098 180.119 4.06396 179.162 4.06396C176.739 4.06396 175.405 5.77765 175.405 7.93232C175.405 10.2656 176.947 11.8007 179.195 11.8007C180.152 11.8007 181.082 11.4602 181.546 10.9522L181.054 9.96977H181.043ZM187.152 11.6835H188.432V4.20352H183.805L183.701 5.6995C183.378 10.2098 182.629 10.461 182.066 10.3828L182.033 11.689C183.482 11.9012 184.434 11.1978 184.866 6.84382L185.014 5.43157H187.152V11.689V11.6835ZM189.525 11.6835H190.827L191.593 9.76881H194.732L195.497 11.6835H196.87L193.764 4.16444H192.632L189.525 11.6835ZM193.168 5.86697L194.239 8.53518H192.09L193.173 5.86697H193.168Z" fill="#E1251B"/>
</g>
<defs>
<clipPath id="clip0_624_1723">
<rect width="203.077" height="48" fill="white"/>
</clipPath>
</defs>
</svg>
